<svg width="93" height="93" viewBox="0 0 93 93" fill="none" xmlns="http://www.w3.org/2000/svg">
<path d="M2.05025 81.0503C-0.683417 83.7839 -0.683417 88.2161 2.05025 90.9497C4.78392 93.6834 9.21608 93.6834 11.9497 90.9497L2.05025 81.0503ZM93 7C93 3.134 89.866 -3.29408e-06 86 -1.27103e-06L23 4.14844e-07C19.134 -2.28255e-06 16 3.13401 16 7C16 10.866 19.134 14 23 14H79V70C79 73.866 82.134 77 86 77C89.866 77 93 73.866 93 70L93 7ZM11.9497 90.9497L90.9498 11.9497L81.0503 2.05025L2.05025 81.0503L11.9497 90.9497Z" fill="black"/>
</svg>
